# xmcd CD database file
#
# Track frame offsets:
#	150
#	5784
#	29419
#	47439
#	71364
#	92402
#	113614
#	132887
#	158352
#	178539
#	197414
#	225794
#	245164
#
# Disc length: 3641 seconds
#
# Revision: 0
# Processed by: cddbd v1.4PL0 Copyright (c) Steve Scherf et al.
# Submitted via: CDex 1.50beta9
#
DISCID=910e370d
DTITLE=Chispa Y los Complices - Mew Pa' Que Vea
DYEAR=1999
DGENRE=Salsa
TTITLE0=Complices (Intro)
TTITLE1=New Pa' Que Vea [Timba/Salsa/Funk]
TTITLE2=Amanecer en Tu Piel [Salsa/Erotica]
TTITLE3=Lo Que Tu Querias [Timba/Salsa]
TTITLE4=Dejate Acariciar [Timba/Salsa]
TTITLE5=Perder el Control [Son Montuno]
TTITLE6=Ellas Son Dos [Balada]
TTITLE7=Complices de Amor [Timba/Salsa]
TTITLE8=Si Llegara el Amor a Mi [Salsa/Erotica]
TTITLE9=Viajando a la Felicidad [Bachata/Cha]
TTITLE10=Se Van Mis Suenos [Timba/Salsa]
TTITLE11=Cerca de Mi [Cumbia Mix]
TTITLE12=Acaben con To' [Timba/Salsa]
EXTD=YEAR: 1999
EXTT0=
EXTT1=
EXTT2=
EXTT3=
EXTT4=
EXTT5=
EXTT6=
EXTT7=
EXTT8=
EXTT9=
EXTT10=
EXTT11=
EXTT12=
PLAYORDER=
